<?xml version="1.0" encoding="iso-8859-1"?>
<!-- Uploaded to: SVG Repo, www.svgrepo.com, Generator: SVG Repo Mixer Tools -->
<svg fill="#000000" height="800px" width="800px" version="1.1" id="Layer_1" xmlns="http://www.w3.org/2000/svg" xmlns:xlink="http://www.w3.org/1999/xlink" 
	 viewBox="0 0 512 512" xml:space="preserve">
<g>
	<g>
		<path d="M447.147,269.966c-9.056-5.228-19.1-9.925-29.64-13.967c10.541-4.041,20.585-8.739,29.64-13.966
			c49.606-28.641,57.684-67.047,30.555-114.034c-27.108-46.952-64.391-59.216-114.034-30.555
			c-9.056,5.228-18.145,11.578-26.916,18.685c1.77-11.148,2.725-22.195,2.725-32.651C339.478,26.198,310.255,0,256,0
			c-54.213,0-83.478,26.158-83.478,83.478c0,10.456,0.955,21.503,2.725,32.652c-8.771-7.107-17.86-13.458-26.916-18.686
			C98.724,68.804,61.426,81.014,34.297,128C7.19,174.948,15.211,213.373,64.854,242.033c9.056,5.228,19.1,9.925,29.639,13.966
			c-10.54,4.041-20.585,8.739-29.64,13.967C15.246,298.606,7.169,337.014,34.297,384c27.71,47.994,65.39,58.64,114.034,30.555
			c9.056-5.228,18.145-11.579,26.916-18.686c-1.77,11.149-2.725,22.196-2.725,32.652C172.522,485.802,201.745,512,256,512
			c54.213,0,83.478-26.158,83.478-83.478c0-10.456-0.955-21.503-2.725-32.651c8.771,7.107,17.86,13.457,26.916,18.685
			c47.213,27.258,85.504,18.856,114.034-30.555C504.81,337.051,496.789,298.627,447.147,269.966z M380.365,126.362
			c36.464-21.053,52.178-9.798,68.42,18.334c16.242,28.132,18.13,47.368-18.333,68.421c-21.432,12.373-50.351,21.488-76.001,24.369
			c-4.277-22.796-16.298-42.894-33.222-57.448C336.551,159.249,358.92,138.743,380.365,126.362z M256,33.391
			c32.484,0,50.087,7.982,50.087,50.087c0,24.747-6.565,54.351-16.897,78.007c-10.392-3.66-21.561-5.659-33.19-5.659
			c-11.628,0-22.797,1.999-33.19,5.659c-10.332-23.656-16.897-53.258-16.897-78.007C205.913,41.373,223.517,33.391,256,33.391z
			 M81.548,213.116c-36.463-21.052-34.576-40.289-18.333-68.42c16.242-28.13,31.958-39.383,68.42-18.334
			c21.446,12.383,43.815,32.887,59.135,53.675c-16.924,14.553-28.945,34.651-33.222,57.448
			C131.898,234.604,102.979,225.488,81.548,213.116z M131.635,385.638c-36.463,21.053-52.178,9.797-68.42-18.334
			s-18.13-47.368,18.333-68.421c21.432-12.373,50.35-21.488,76.001-24.369c4.277,22.796,16.298,42.894,33.222,57.448
			C175.45,352.751,153.081,373.256,131.635,385.638z M256,478.609c-32.484,0-50.087-7.982-50.087-50.087
			c0-24.748,6.565-54.351,16.897-78.007c10.392,3.66,21.562,5.659,33.19,5.659s22.797-1.999,33.19-5.659
			c10.332,23.656,16.897,53.259,16.897,78.007C306.087,470.627,288.484,478.609,256,478.609z M256,322.783
			c-36.824,0-66.783-29.959-66.783-66.783s29.959-66.783,66.783-66.783s66.783,29.959,66.783,66.783S292.824,322.783,256,322.783z
			 M448.785,367.304c-16.243,28.132-31.956,39.385-68.42,18.334c-21.446-12.381-43.814-32.886-59.135-53.675
			c16.924-14.553,28.945-34.651,33.222-57.448c25.65,2.879,54.568,11.995,76,24.368
			C466.915,319.937,465.026,339.172,448.785,367.304z"/>
	</g>
</g>
</svg>